<svg version="1.1" viewBox="0.0 0.0 960.0 720.0" fill="none" stroke="none" stroke-linecap="square" stroke-miterlimit="10" xmlns:xlink="http://www.w3.org/1999/xlink" xmlns="http://www.w3.org/2000/svg"><clipPath id="p.0"><path d="m0 0l960.0 0l0 720.0l-960.0 0l0 -720.0z" clip-rule="nonzero"/></clipPath><g clip-path="url(#p.0)"><path fill="#000000" fill-opacity="0.0" d="m0 0l960.0 0l0 720.0l-960.0 0z" fill-rule="evenodd"/><path fill="#1155cc" d="m0 0l960.0 0l0 720.0l-960.0 0z" fill-rule="evenodd"/><path stroke="#000000" stroke-width="1.0" stroke-linejoin="round" stroke-linecap="butt" d="m0 0l960.0 0l0 720.0l-960.0 0z" fill-rule="evenodd"/><path fill="#000000" fill-opacity="0.0" d="m287.77954 188.70866l384.44092 0l0 342.58264l-384.44092 0z" fill-rule="evenodd"/><path fill="#ffffff" d="m527.65234 378.58365q-4.03125 0.390625 -7.15625 0.921875q-3.125 0.515625 -7.8125 2.078125q-5.3437195 1.6875 -7.0312195 5.59375q-1.6875 3.90625 -1.6875 8.203125l0 21.484375q0 6.5 0.125 10.484375q0.125 3.96875 0.390625 9.828125q-13.015625 7.8125 -38.484375 14.71875q-25.453125 6.890625 -46.796875 6.890625q-20.0625 0 -37.640625 -6.109375q-17.5625 -6.125 -30.84375 -18.375q-13.28125 -12.109375 -20.90625 -30.0625q-7.609375 -17.96875 -7.609375 -41.15625q0 -21.609375 7.15625 -39.96875q7.15625 -18.359375 20.703125 -31.640625q13.28125 -13.15625 32.34375 -20.3125q19.078125 -7.15625 42.265625 -7.15625q15.75 0 29.15625 3.84375q13.421875 3.828125 22.140625 8.265625l8.078125 -7.171875l11.328125 0l1.171875 67.453125l-11.46875 0q-9.890625 -30.34375 -23.703125 -45.046875q-13.796875 -14.71875 -34.890625 -14.71875q-25.0 0 -38.609375 21.875q-13.59375 21.875 -13.59375 60.28125q0 40.75 13.34375 63.796875q13.34375 23.046875 37.828125 23.046875q11.453125 0 20.375 -3.4375q8.921875 -3.453125 13.859375 -8.015625l0 -37.5q0 -4.6875 -1.6875 -7.875q-1.6875 -3.1875 -6.765625 -5.53125q-3.90625 -1.828125 -9.765625 -3.0q-5.859375 -1.171875 -9.765625 -1.6875l0 -10.15625l95.953094 0l0 10.15625zm111.19476 75.125l-102.46875 0l0 -10.15625q3.515625 -0.265625 10.34375 -0.78125q6.84375 -0.515625 9.453125 -1.5625q4.8125 -1.953125 6.5625 -5.140625q1.765625 -3.1875 1.765625 -8.140625l0 -130.98438q0 -4.421875 -1.703125 -7.8125q-1.6875 -3.390625 -6.625 -5.46875q-3.125 -1.296875 -9.25 -2.65625q-6.125 -1.375 -10.546875 -1.90625l0 -10.15625l102.46875 0l0 10.15625q-3.90625 0.390625 -9.765625 1.109375q-5.859375 0.71875 -9.890625 2.015625q-5.078125 1.703125 -6.78125 5.28125q-1.6875 3.578125 -1.6875 8.140625l0 130.84375q0 4.6875 1.75 8.015625q1.765625 3.3125 6.71875 5.40625q2.734375 1.171875 9.046875 2.28125q6.3125 1.09375 10.609375 1.359375l0 10.15625z" fill-rule="nonzero"/></g></svg>